<?xml version="1.0" standalone="no"?><!DOCTYPE svg PUBLIC "-//W3C//DTD SVG 1.1//EN" "http://www.w3.org/Graphics/SVG/1.1/DTD/svg11.dtd"><svg t="1774357944045" class="icon" viewBox="0 0 1024 1024" version="1.1" xmlns="http://www.w3.org/2000/svg" p-id="7515" xmlns:xlink="http://www.w3.org/1999/xlink" width="400" height="400"><path d="M218.5 956.7c-8.1-5.9-9.9-17.3-4.1-25.4l114-157.6c5.9-8.1 17.3-9.9 25.4-4.1 8.1 5.9 9.9 17.3 4.1 25.4l-114 157.6c-5.8 8.1-17.2 10-25.4 4.1zM802.1 956.7c8.1-5.9 9.9-17.3 4.1-25.4l-114-157.6c-5.9-8.1-17.3-9.9-25.4-4.1-8.1 5.9-9.9 17.3-4.1 25.4l114 157.6c5.8 8.1 17.2 10 25.4 4.1z" fill="#A4BEFF" p-id="7516"></path><path d="M757.8 246l48.8-67.4c5.9-8.1 4-19.5-4.1-25.4-8.1-5.9-19.5-4-25.4 4.1l-48.7 67.3C666.8 183.7 593.1 160 514.1 160c-82.2 0-158.5 25.6-221.5 69.3l-52.2-72.1c-5.9-8.1-17.3-9.9-25.4-4.1-8.1 5.9-9.9 17.3-4.1 25.4l52.8 72.9C178.6 323 124.4 430.2 124.4 549.7c0 214.6 175 389.7 389.7 389.7s389.7-175 389.7-389.7c-0.1-122.6-57.1-232.2-146-303.7z" fill="#5B79FB" p-id="7517"></path><path d="M289.963974 773.819932a317 317 0 1 0 448.297875-448.313523 317 317 0 1 0-448.297875 448.313523Z" fill="#FFFFFF" p-id="7518"></path><path d="M294 64.1c54.2 0 102.8 24 135.8 61.9C305.3 150.6 200 228.8 138.9 335.5c-15.8-26.8-24.9-58-24.9-91.4 0-99.4 80.6-180 180-180z m440.1 0c99.4 0 180 80.6 180 180 0 33.4-9.1 64.6-24.9 91.4-61-106.7-166.3-184.9-290.9-209.5 33-37.9 81.6-61.9 135.8-61.9z" fill="#A4BEFF" p-id="7519"></path><path d="M514.1 318.8c10 0 18.2 8.2 18.2 18.2v194.5c0 10-8.2 18.2-18.2 18.2s-18.2-8.2-18.2-18.2V337c0-10 8.2-18.2 18.2-18.2z" fill="#FF7E71" p-id="7520"></path><path d="M368.7 419.9c6.7-7.5 18.2-8.1 25.7-1.5L512.6 524c7.5 6.7 8.1 18.2 1.5 25.7-6.7 7.5-18.2 8.1-25.7 1.5L370.2 445.6c-7.5-6.6-8.2-18.2-1.5-25.7z" fill="#FF7E71" p-id="7521"></path><path d="M514.1 300c11.1 0 20.1-9 20.1-20.1s-9-20.1-20.1-20.1c-11.1 0-20.1 9-20.1 20.1s9 20.1 20.1 20.1zM814.4 557.5c0 11.1-9 20.1-20.1 20.1s-20.1-9-20.1-20.1c0-11.1 9-20.1 20.1-20.1s20.1 9 20.1 20.1zM516.8 857.8c-11.1 0-20.1-9-20.1-20.1 0-11.1 9-20.1 20.1-20.1s20.1 9 20.1 20.1c0 11.1-9 20.1-20.1 20.1zM216.4 560.2c0-11.1 9-20.1 20.1-20.1 11.1 0 20.1 9 20.1 20.1 0 11.1-9 20.1-20.1 20.1-11.1 0-20.1-9-20.1-20.1z" fill="#5B79FB" p-id="7522"></path><path d="M514.1 596.7c25.9 0 47-21.1 47-47s-21.1-47-47-47-47 21.1-47 47c-0.1 25.9 21.1 47 47 47z" fill="#FF7E71" p-id="7523"></path></svg>