<?xml version="1.0" standalone="no"?><!DOCTYPE svg PUBLIC "-//W3C//DTD SVG 1.1//EN" "http://www.w3.org/Graphics/SVG/1.1/DTD/svg11.dtd"><svg t="1774421384369" class="icon" viewBox="0 0 1024 1024" version="1.1" xmlns="http://www.w3.org/2000/svg" p-id="16890" xmlns:xlink="http://www.w3.org/1999/xlink" width="200" height="200"><path d="M131.026745 887.525823c0 20.941421 8.341075 40.906759 23.071057 55.725477s34.784055 23.071057 55.725477 23.071057h664.268977c20.941421 0 40.906759-8.341075 55.725477-23.071057 14.818718-14.818718 23.071057-34.784055 23.071057-55.725477V223.256846c0-20.941421-8.341075-40.906759-23.071057-55.725477-14.818718-14.818718-34.784055-23.071057-55.725477-23.071057h-664.268977c-20.941421 0-40.906759 8.341075-55.725477 23.071057s-23.071057 34.784055-23.071057 55.725477v664.268977z" fill="#B3B3B3" p-id="16891"></path><path d="M71.130731 831.300769c0 20.586482 8.163605 40.37435 22.804853 54.926864s34.340381 22.804853 54.926863 22.804852h666.398614c42.94766 0 77.731716-34.784055 77.731715-77.731716v-600.82357h-821.862045v600.82357z" fill="#F9F9F9" p-id="16892"></path><path d="M815.261061 924.561081h-666.398614c-24.934489 0-48.360485-9.672097-65.929983-27.330329-17.658232-17.658232-27.330329-41.084229-27.330329-65.929983v-616.440901h852.919238v616.352167c0 51.466205-41.794107 93.349047-93.260312 93.349046z m-728.601733-678.555286v585.294974c0 16.593414 6.477643 32.210745 18.190641 43.923744 11.801733 11.712998 27.419064 18.190641 44.012478 18.190641h666.398614c34.251646 0 62.20312-27.862738 62.203119-62.203119v-585.294974h-790.804852z" fill="#333333" p-id="16893"></path><path d="M71.130731 271.206489h821.862045v-90.775737c0-20.586482-8.163605-40.37435-22.804852-54.926863s-34.251646-22.716118-54.926863-22.716118h-666.398614c-20.586482 0-40.37435 8.163605-54.926863 22.804853s-22.804853 34.340381-22.804853 54.926863v90.687002z" fill="#FF6666" p-id="16894"></path><path d="M908.521373 286.82382h-852.919238v-106.304333c0-24.934489 9.672097-48.360485 27.330329-65.929983 17.569497-17.658232 40.995494-27.330329 65.929983-27.330329h666.398614c24.934489 0 48.360485 9.672097 65.929982 27.330329 17.569497 17.658232 27.330329 40.995494 27.33033 65.929983v106.304333z m-821.862045-31.145927h790.804852v-75.158406c0-16.593414-6.477643-32.210745-18.190641-43.923743s-27.330329-18.190641-43.923744-18.190642h-666.398613c-16.682149-0.088735-32.29948 6.388908-44.101213 18.101907-11.712998 11.801733-18.190641 27.419064-18.190641 44.012478v75.158406z" fill="#333333" p-id="16895"></path><path d="M289.595896 154.132409c-12.777816 6.832582-21.385095 20.231542-21.385095 35.671404 0 22.361179 18.101906 40.463085 40.463085 40.463085 22.361179 0 40.37435-18.101906 40.37435-40.463085 0-15.439861-8.696014-28.838821-21.385096-35.671404V76.666898c0-5.057886-2.040901-9.849567-5.590294-13.487695-3.549393-3.549393-8.429809-5.590295-13.487695-5.590295-5.057886 0-9.849567 2.040901-13.487695 5.590295-3.549393 3.549393-5.590295 8.429809-5.590295 13.487695v77.465511z m347.041941 0c-12.777816 6.832582-21.385095 20.231542-21.385095 35.671404 0 22.361179 18.101906 40.463085 40.463085 40.463085 22.361179 0 40.463085-18.101906 40.463085-40.463085 0-15.439861-8.696014-28.838821-21.385096-35.671404V76.666898c0-5.057886-2.040901-9.849567-5.590294-13.487695-3.549393-3.549393-8.429809-5.590295-13.487695-5.590295-5.057886 0-9.849567 2.040901-13.487695 5.590295-3.549393 3.549393-5.590295 8.429809-5.590295 13.487695v77.465511z" fill="#333333" p-id="16896"></path><path d="M482.150489 854.871404c-71.431542 0-138.603813-27.862738-189.093934-78.35286-50.490121-50.490121-78.35286-117.662392-78.35286-189.182669h39.930676c0 125.471057 102.045061 227.604853 227.516118 227.604853 125.471057 0 227.516118-102.045061 227.516118-227.604853 0-125.471057-102.045061-227.516118-227.516118-227.516118-46.230849 0-90.332062 13.665165-127.689428 39.132063h48.715424v39.930676h-116.065164V317.670711h39.930676v51.732409c44.988562-32.12201 98.673137-49.425303 155.019757-49.425304 71.431542 0 138.603813 27.862738 189.182669 78.35286 50.490121 50.490121 78.35286 117.662392 78.352859 189.093934s-27.862738 138.603813-78.352859 189.182669c-50.490121 50.490121-117.662392 78.264125-189.093934 78.264125z m-12.156673-121.47799c0-4.791681-0.266205-118.72721 8.784749-177.203466 3.194454-20.586482 10.115771-36.647487 18.279376-49.070364h-83.410745v-39.930676h136.917851l6.388908 38.865858 0.266204-0.088735c-1.331023 0.443674-32.12201 12.245407-38.954592 56.257886-8.607279 55.370537-8.341075 169.838475-8.341075 170.992028l-39.930676 0.177469z" fill="#0099CC" p-id="16897"></path></svg>