<?xml version="1.0" standalone="no"?><!DOCTYPE svg PUBLIC "-//W3C//DTD SVG 1.1//EN" "http://www.w3.org/Graphics/SVG/1.1/DTD/svg11.dtd"><svg t="1774398653212" class="icon" viewBox="0 0 1024 1024" version="1.1" xmlns="http://www.w3.org/2000/svg" p-id="11120" xmlns:xlink="http://www.w3.org/1999/xlink" width="200" height="200"><path d="M331 572h528v265H331z" fill="#A9C6FF" p-id="11121"></path><path d="M898.5 876.51H133.09V196.93H898.5z m-685.41-80H818.5V276.93H213.09z" fill="#333333" p-id="11122"></path><path d="M305.67 143h80v187h-80zM636.44 143h80v187h-80zM295.06 657.98h78.61v80h-78.61zM295.06 532.98h78.61v80h-78.61zM479.06 532.98h78.61v80h-78.61zM661.06 532.98h78.61v80h-78.61zM173.69 393h675.76v80H173.69zM479.12 657.98h78.61v80h-78.61zM661.4 657.98h78.61v80H661.4z" fill="#333333" p-id="11123"></path></svg>