<?xml version="1.0" standalone="no"?><!DOCTYPE svg PUBLIC "-//W3C//DTD SVG 1.1//EN" "http://www.w3.org/Graphics/SVG/1.1/DTD/svg11.dtd"><svg t="1775457981827" class="icon" viewBox="0 0 1161 1024" version="1.1" xmlns="http://www.w3.org/2000/svg" p-id="5658" xmlns:xlink="http://www.w3.org/1999/xlink" width="226.7578125" height="200"><path d="M820.429215 0H115.980949A116.091291 116.091291 0 0 0 0 115.980949v538.581496a116.102325 116.102325 0 0 0 115.980949 115.991983h101.150923v68.986099a74.591496 74.591496 0 0 0 116.40025 61.791772L527.105881 770.653736h293.323334A116.091291 116.091291 0 0 0 936.476369 654.672787v-538.691838A116.091291 116.091291 0 0 0 820.429215 0z m41.444624 654.562445a41.477727 41.477727 0 0 1-41.444624 41.444624H504.198789L291.668197 839.540527V696.007069H115.980949a41.477727 41.477727 0 0 1-41.43359-41.444624v-538.581496a41.488761 41.488761 0 0 1 41.43359-41.444624h704.448266a41.488761 41.488761 0 0 1 41.444624 41.444624z m0 0" p-id="5659"></path><path d="M177.816857 378.176677a66.326846 66.326846 0 1 0 33.168941-57.466347 66.326846 66.326846 0 0 0-33.168941 57.444279z m0 0M401.88927 378.176677a66.326846 66.326846 0 1 0 33.157906-57.466347 66.315812 66.315812 0 0 0-33.157906 57.444279z m0 0M624.207237 378.176677a66.326846 66.326846 0 1 0 66.359949-66.293743 66.315812 66.315812 0 0 0-66.359949 66.293743z m0 0" p-id="5660"></path></svg>